<svg data-v-423bf9ae="" xmlns="http://www.w3.org/2000/svg" viewBox="0 0 640 90" class="iconLeft"><!----><!----><!----><g data-v-423bf9ae="" id="60b88d58-4803-4792-b219-611c1cd755a9" fill="black" transform="matrix(5.655042595806296,0,0,5.655042595806296,91.08408871530082,-23.341186812670244)"><path d="M4.37 12.04L7.55 12.04L7.55 16.79L7.55 16.79Q6.83 17.11 6.02 17.25L6.02 17.25L6.02 17.25Q5.21 17.39 4.06 17.39L4.06 17.39L4.06 17.39Q2.63 17.39 1.89 17.00L1.89 17.00L1.89 17.00Q1.15 16.60 0.84 15.63L0.84 15.63L0.84 15.63Q0.53 14.66 0.53 12.81L0.53 12.81L0.53 12.81Q0.53 10.98 0.88 10.00L0.88 10.00L0.88 10.00Q1.22 9.03 2.06 8.62L2.06 8.62L2.06 8.62Q2.90 8.22 4.48 8.22L4.48 8.22L4.48 8.22Q5.17 8.22 5.96 8.32L5.96 8.32L5.96 8.32Q6.76 8.43 7.14 8.57L7.14 8.57L6.83 10.53L6.83 10.53Q6.33 10.40 5.67 10.33L5.67 10.33L5.67 10.33Q5.01 10.26 4.56 10.26L4.56 10.26L4.56 10.26Q3.78 10.26 3.48 10.47L3.48 10.47L3.48 10.47Q3.18 10.68 3.18 11.26L3.18 11.26L3.18 15.40L5.24 15.40L5.24 13.85L4.37 13.85L4.37 12.04ZM11.31 15.41L11.31 15.41Q11.68 15.47 11.98 15.50L11.98 15.50L11.87 17.16L11.87 17.16Q11.10 17.37 10.47 17.37L10.47 17.37L10.47 17.37Q9.65 17.37 9.25 17.03L9.25 17.03L9.25 17.03Q8.85 16.69 8.85 15.96L8.85 15.96L8.85 8.08L11.31 7.87L11.31 15.41ZM16.30 17.37L16.30 17.37Q15.02 17.37 14.25 17.00L14.25 17.00L14.25 17.00Q13.48 16.62 13.12 15.81L13.12 15.81L13.12 15.81Q12.75 15.01 12.75 13.68L12.75 13.68L12.75 13.68Q12.75 12.35 13.12 11.54L13.12 11.54L13.12 11.54Q13.48 10.72 14.25 10.35L14.25 10.35L14.25 10.35Q15.02 9.98 16.30 9.98L16.30 9.98L16.30 9.98Q17.58 9.98 18.36 10.35L18.36 10.35L18.36 10.35Q19.14 10.72 19.50 11.54L19.50 11.54L19.50 11.54Q19.85 12.35 19.85 13.68L19.85 13.68L19.85 13.68Q19.85 15.01 19.49 15.81L19.49 15.81L19.49 15.81Q19.12 16.62 18.35 17.00L18.35 17.00L18.35 17.00Q17.57 17.37 16.30 17.37L16.30 17.37ZM15.40 15.50L16.65 15.50L16.65 15.50Q16.98 15.50 17.10 15.42L17.10 15.42L17.10 15.42Q17.22 15.34 17.22 15.12L17.22 15.12L17.22 11.86L15.97 11.86L15.97 11.86Q15.64 11.86 15.52 11.94L15.52 11.94L15.52 11.94Q15.40 12.01 15.40 12.24L15.40 12.24L15.40 15.50ZM25.20 9.97L25.20 9.97Q26.25 9.97 26.88 10.34L26.88 10.34L26.88 10.34Q27.51 10.71 27.80 11.52L27.80 11.52L27.80 11.52Q28.10 12.33 28.10 13.68L28.10 13.68L28.10 13.68Q28.10 15.02 27.76 15.83L27.76 15.83L27.76 15.83Q27.41 16.63 26.68 17.00L26.68 17.00L26.68 17.00Q25.94 17.37 24.71 17.37L24.71 17.37L24.71 17.37Q23.69 17.37 22.88 17.25L22.88 17.25L22.88 17.25Q22.06 17.12 21.21 16.84L21.21 16.84L21.21 8.02L23.67 7.83L23.67 10.23L23.67 10.23Q24.26 9.97 25.20 9.97L25.20 9.97ZM25.45 15.13L25.45 11.84L24.25 11.84L24.25 11.84Q23.91 11.84 23.79 11.92L23.79 11.92L23.79 11.92Q23.67 12.00 23.67 12.22L23.67 12.22L23.67 15.50L24.89 15.50L24.89 15.50Q25.21 15.50 25.33 15.42L25.33 15.42L25.33 15.42Q25.45 15.34 25.45 15.13L25.45 15.13ZM32.62 9.98L32.62 9.98Q34.23 9.98 34.96 10.54L34.96 10.54L34.96 10.54Q35.69 11.09 35.69 12.32L35.69 12.32L35.69 17.18L34.47 17.18L33.85 16.48L33.85 16.48Q32.79 17.37 31.44 17.37L31.44 17.37L31.44 17.37Q30.20 17.37 29.63 16.82L29.63 16.82L29.63 16.82Q29.06 16.27 29.06 15.06L29.06 15.06L29.06 15.06Q29.06 14.17 29.41 13.68L29.41 13.68L29.41 13.68Q29.75 13.19 30.56 12.98L30.56 12.98L30.56 12.98Q31.37 12.77 32.86 12.77L32.86 12.77L33.22 12.77L33.22 11.89L33.22 11.89Q32.93 11.80 32.35 11.80L32.35 11.80L32.35 11.80Q31.09 11.80 29.68 12.17L29.68 12.17L29.39 10.44L29.39 10.44Q30.84 9.98 32.62 9.98L32.62 9.98ZM32.23 15.68L32.23 15.68Q32.80 15.68 33.01 15.55L33.01 15.55L33.01 15.55Q33.22 15.43 33.22 15.08L33.22 15.08L33.22 14.06L32.34 14.06L32.34 14.06Q31.77 14.06 31.55 14.19L31.55 14.19L31.55 14.19Q31.33 14.32 31.33 14.69L31.33 14.69L31.33 15.68L32.23 15.68ZM39.73 15.41L39.73 15.41Q40.10 15.47 40.40 15.50L40.40 15.50L40.29 17.16L40.29 17.16Q39.52 17.37 38.89 17.37L38.89 17.37L38.89 17.37Q38.07 17.37 37.67 17.03L37.67 17.03L37.67 17.03Q37.27 16.69 37.27 15.96L37.27 15.96L37.27 8.08L39.73 7.87L39.73 15.41ZM50.39 17.02L50.39 17.02Q49.85 17.22 49.25 17.30L49.25 17.30L49.25 17.30Q48.65 17.39 47.84 17.39L47.84 17.39L47.84 17.39Q46.40 17.39 45.61 16.97L45.61 16.97L45.61 16.97Q44.81 16.55 44.49 15.58L44.49 15.58L44.49 15.58Q44.16 14.60 44.16 12.81L44.16 12.81L44.16 12.81Q44.16 11.00 44.51 10.02L44.51 10.02L44.51 10.02Q44.87 9.04 45.71 8.63L45.71 8.63L45.71 8.63Q46.55 8.22 48.09 8.22L48.09 8.22L48.09 8.22Q48.66 8.22 49.34 8.32L49.34 8.32L49.34 8.32Q50.02 8.43 50.34 8.57L50.34 8.57L50.04 10.53L50.04 10.53Q49.62 10.40 49.08 10.33L49.08 10.33L49.08 10.33Q48.54 10.26 48.17 10.26L48.17 10.26L48.17 10.26Q47.39 10.26 47.10 10.47L47.10 10.47L47.10 10.47Q46.80 10.68 46.80 11.26L46.80 11.26L46.80 15.16L46.80 15.16Q47.50 15.30 48.05 15.30L48.05 15.30L48.05 15.30Q48.62 15.30 49.20 15.21L49.20 15.21L49.20 15.21Q49.77 15.12 50.20 14.97L50.20 14.97L50.39 17.02ZM54.75 17.37L54.75 17.37Q53.48 17.37 52.71 17.00L52.71 17.00L52.71 17.00Q51.94 16.62 51.58 15.81L51.58 15.81L51.58 15.81Q51.21 15.01 51.21 13.68L51.21 13.68L51.21 13.68Q51.21 12.35 51.58 11.54L51.58 11.54L51.58 11.54Q51.94 10.72 52.71 10.35L52.71 10.35L52.71 10.35Q53.48 9.98 54.75 9.98L54.75 9.98L54.75 9.98Q56.04 9.98 56.82 10.35L56.82 10.35L56.82 10.35Q57.60 10.72 57.95 11.54L57.95 11.54L57.95 11.54Q58.31 12.35 58.31 13.68L58.31 13.68L58.31 13.68Q58.31 15.01 57.95 15.81L57.95 15.81L57.95 15.81Q57.58 16.62 56.81 17.00L56.81 17.00L56.81 17.00Q56.03 17.37 54.75 17.37L54.75 17.37ZM53.86 15.50L55.10 15.50L55.10 15.50Q55.44 15.50 55.56 15.42L55.56 15.42L55.56 15.42Q55.68 15.34 55.68 15.12L55.68 15.12L55.68 11.86L54.43 11.86L54.43 11.86Q54.10 11.86 53.98 11.94L53.98 11.94L53.98 11.94Q53.86 12.01 53.86 12.24L53.86 12.24L53.86 15.50ZM59.56 17.18L59.56 17.18ZM59.67 10.47L62.13 10.15L62.13 17.18L59.67 17.18L59.67 10.47ZM60.89 9.44L60.89 9.44Q60.35 9.44 60.07 9.32L60.07 9.32L60.07 9.32Q59.79 9.21 59.68 8.93L59.68 8.93L59.68 8.93Q59.56 8.65 59.56 8.12L59.56 8.12L59.56 8.12Q59.56 7.35 59.84 7.06L59.84 7.06L59.84 7.06Q60.12 6.78 60.89 6.78L60.89 6.78L60.89 6.78Q61.66 6.78 61.94 7.06L61.94 7.06L61.94 7.06Q62.22 7.35 62.22 8.12L62.22 8.12L62.22 8.12Q62.22 8.89 61.94 9.16L61.94 9.16L61.94 9.16Q61.66 9.44 60.89 9.44L60.89 9.44ZM63.80 17.18L63.80 10.18L65.02 10.18L65.65 10.88L65.65 10.88Q66.81 9.98 68.39 9.98L68.39 9.98L68.39 9.98Q69.37 9.98 69.92 10.38L69.92 10.38L69.92 10.38Q70.46 10.78 70.46 11.49L70.46 11.49L70.46 17.18L68.00 17.18L68.00 12.01L66.96 12.01L66.96 12.01Q66.57 12.01 66.42 12.12L66.42 12.12L66.42 12.12Q66.26 12.24 66.26 12.50L66.26 12.50L66.26 17.18L63.80 17.18ZM71.99 14.90L71.99 14.90Q73.36 15.32 74.80 15.32L74.80 15.32L74.80 15.32Q75.53 15.32 76.05 15.23L76.05 15.23L76.05 14.03L74.77 13.92L74.77 13.92Q73.64 13.82 72.99 13.53L72.99 13.53L72.99 13.53Q72.34 13.24 72.05 12.71L72.05 12.71L72.05 12.71Q71.76 12.17 71.76 11.26L71.76 11.26L71.76 11.26Q71.76 10.12 72.08 9.46L72.08 9.46L72.08 9.46Q72.39 8.81 73.11 8.51L73.11 8.51L73.11 8.51Q73.82 8.22 75.05 8.22L75.05 8.22L75.05 8.22Q76.68 8.22 78.23 8.60L78.23 8.60L77.92 10.57L77.92 10.57Q77.21 10.43 76.69 10.37L76.69 10.37L76.69 10.37Q76.16 10.30 75.59 10.30L75.59 10.30L75.59 10.30Q74.87 10.30 74.41 10.37L74.41 10.37L74.41 11.58L75.56 11.68L75.56 11.68Q77.24 11.83 77.97 12.48L77.97 12.48L77.97 12.48Q78.69 13.13 78.69 14.49L78.69 14.49L78.69 14.49Q78.69 16.02 77.85 16.70L77.85 16.70L77.85 16.70Q77.00 17.39 75.10 17.39L75.10 17.39L75.10 17.39Q73.23 17.39 71.64 16.93L71.64 16.93L71.99 14.90ZM83.75 11.79L82.71 11.79L82.71 15.41L82.71 15.41Q83.16 15.48 83.58 15.50L83.58 15.50L83.47 17.16L83.47 17.16Q82.53 17.37 81.87 17.37L81.87 17.37L81.87 17.37Q81.05 17.37 80.65 17.03L80.65 17.03L80.65 17.03Q80.25 16.69 80.25 15.96L80.25 15.96L80.25 11.79L79.48 11.79L79.48 10.18L80.25 10.18L80.25 8.97L82.71 8.36L82.71 10.18L83.75 10.18L83.75 11.79ZM88.17 9.98L88.17 9.98Q89.78 9.98 90.51 10.54L90.51 10.54L90.51 10.54Q91.24 11.09 91.24 12.32L91.24 12.32L91.24 17.18L90.02 17.18L89.40 16.48L89.40 16.48Q88.34 17.37 87.00 17.37L87.00 17.37L87.00 17.37Q85.75 17.37 85.18 16.82L85.18 16.82L85.18 16.82Q84.62 16.27 84.62 15.06L84.62 15.06L84.62 15.06Q84.62 14.17 84.96 13.68L84.96 13.68L84.96 13.68Q85.30 13.19 86.11 12.98L86.11 12.98L86.11 12.98Q86.93 12.77 88.41 12.77L88.41 12.77L88.77 12.77L88.77 11.89L88.77 11.89Q88.48 11.80 87.91 11.80L87.91 11.80L87.91 11.80Q86.65 11.80 85.23 12.17L85.23 12.17L84.94 10.44L84.94 10.44Q86.39 9.98 88.17 9.98L88.17 9.98ZM87.78 15.68L87.78 15.68Q88.35 15.68 88.56 15.55L88.56 15.55L88.56 15.55Q88.77 15.43 88.77 15.08L88.77 15.08L88.77 14.06L87.89 14.06L87.89 14.06Q87.32 14.06 87.10 14.19L87.10 14.19L87.10 14.19Q86.88 14.32 86.88 14.69L86.88 14.69L86.88 15.68L87.78 15.68ZM94.07 10.18L94.77 11.14L94.77 11.14Q95.70 10.23 96.81 9.97L96.81 9.97L96.96 12.36L96.96 12.36Q96.60 12.42 96.08 12.62L96.08 12.62L96.08 12.62Q95.56 12.82 95.31 13.01L95.31 13.01L95.31 17.18L92.85 17.18L92.85 10.18L94.07 10.18Z"></path></g><!----><g data-v-423bf9ae="" id="24fe9a53-0306-452f-807e-8af79303fa90" transform="matrix(2.8125,0,0,2.8125,-7.170000076293945,0)" stroke="none" fill="black"><path d="M2.83 18.247l26.34-9.124L2.83 0zM29.17 32V13.753L2.83 22.877z"></path></g><!----></svg>